<svg width="33" height="34" viewBox="0 0 33 34" fill="none" xmlns="http://www.w3.org/2000/svg">
<path d="M8.42541 12.4646C5.05422 14.0249 -0.0886029 18.7961 1.03568 21.2254C2.15997 23.6546 9.12561 22.8219 12.4968 21.2617C15.868 19.7015 17.6895 16.4674 16.5652 14.0381C15.4409 11.6089 11.7966 10.9044 8.42541 12.4646Z" fill="#D9D9D9"/>
<path d="M8.42541 12.4646C5.05422 14.0249 -0.0886029 18.7961 1.03568 21.2254C2.15997 23.6546 9.12561 22.8219 12.4968 21.2617C15.868 19.7015 17.6895 16.4674 16.5652 14.0381C15.4409 11.6089 11.7966 10.9044 8.42541 12.4646Z" fill="#D9D9D9"/>
<path d="M8.42541 12.4646C5.05422 14.0249 -0.0886029 18.7961 1.03568 21.2254C2.15997 23.6546 9.12561 22.8219 12.4968 21.2617C15.868 19.7015 17.6895 16.4674 16.5652 14.0381C15.4409 11.6089 11.7966 10.9044 8.42541 12.4646Z" fill="#D9D9D9"/>
<path d="M8.42541 12.4646C5.05422 14.0249 -0.0886029 18.7961 1.03568 21.2254C2.15997 23.6546 9.12561 22.8219 12.4968 21.2617C15.868 19.7015 17.6895 16.4674 16.5652 14.0381C15.4409 11.6089 11.7966 10.9044 8.42541 12.4646Z" fill="#D9D9D9"/>
<path d="M8.42541 12.4646C5.05422 14.0249 -0.0886029 18.7961 1.03568 21.2254C2.15997 23.6546 9.12561 22.8219 12.4968 21.2617C15.868 19.7015 17.6895 16.4674 16.5652 14.0381C15.4409 11.6089 11.7966 10.9044 8.42541 12.4646Z" fill="#D9D9D9"/>
<path d="M8.42541 12.4646C5.05422 14.0249 -0.0886029 18.7961 1.03568 21.2254C2.15997 23.6546 9.12561 22.8219 12.4968 21.2617C15.868 19.7015 17.6895 16.4674 16.5652 14.0381C15.4409 11.6089 11.7966 10.9044 8.42541 12.4646Z" fill="#D9D9D9"/>
<path d="M8.42541 12.4646C5.05422 14.0249 -0.0886029 18.7961 1.03568 21.2254C2.15997 23.6546 9.12561 22.8219 12.4968 21.2617C15.868 19.7015 17.6895 16.4674 16.5652 14.0381C15.4409 11.6089 11.7966 10.9044 8.42541 12.4646Z" fill="#D9D9D9"/>
<path d="M8.42541 12.4646C5.05422 14.0249 -0.0886029 18.7961 1.03568 21.2254C2.15997 23.6546 9.12561 22.8219 12.4968 21.2617C15.868 19.7015 17.6895 16.4674 16.5652 14.0381C15.4409 11.6089 11.7966 10.9044 8.42541 12.4646Z" fill="#D9D9D9"/>
<path d="M8.42541 12.4646C5.05422 14.0249 -0.0886029 18.7961 1.03568 21.2254C2.15997 23.6546 9.12561 22.8219 12.4968 21.2617C15.868 19.7015 17.6895 16.4674 16.5652 14.0381C15.4409 11.6089 11.7966 10.9044 8.42541 12.4646Z" fill="#D9D9D9"/>
<path d="M8.42541 12.4646C5.05422 14.0249 -0.0886029 18.7961 1.03568 21.2254C2.15997 23.6546 9.12561 22.8219 12.4968 21.2617C15.868 19.7015 17.6895 16.4674 16.5652 14.0381C15.4409 11.6089 11.7966 10.9044 8.42541 12.4646Z" fill="#F8CC4D"/>
<path d="M12.6879 8.27066C9.20088 6.99011 2.19056 6.72738 1.26781 9.24011C0.345068 11.7528 5.85932 16.0895 9.34637 17.37C12.8334 18.6506 16.4082 17.6517 17.331 15.139C18.2537 12.6262 16.175 9.5512 12.6879 8.27066Z" fill="#D9D9D9"/>
<path d="M12.6879 8.27066C9.20088 6.99011 2.19056 6.72738 1.26781 9.24011C0.345068 11.7528 5.85932 16.0895 9.34637 17.37C12.8334 18.6506 16.4082 17.6517 17.331 15.139C18.2537 12.6262 16.175 9.5512 12.6879 8.27066Z" fill="#D9D9D9"/>
<path d="M12.6879 8.27066C9.20088 6.99011 2.19056 6.72738 1.26781 9.24011C0.345068 11.7528 5.85932 16.0895 9.34637 17.37C12.8334 18.6506 16.4082 17.6517 17.331 15.139C18.2537 12.6262 16.175 9.5512 12.6879 8.27066Z" fill="#D9D9D9"/>
<path d="M12.6879 8.27066C9.20088 6.99011 2.19056 6.72738 1.26781 9.24011C0.345068 11.7528 5.85932 16.0895 9.34637 17.37C12.8334 18.6506 16.4082 17.6517 17.331 15.139C18.2537 12.6262 16.175 9.5512 12.6879 8.27066Z" fill="#D9D9D9"/>
<path d="M12.6879 8.27066C9.20088 6.99011 2.19056 6.72738 1.26781 9.24011C0.345068 11.7528 5.85932 16.0895 9.34637 17.37C12.8334 18.6506 16.4082 17.6517 17.331 15.139C18.2537 12.6262 16.175 9.5512 12.6879 8.27066Z" fill="#D9D9D9"/>
<path d="M12.6879 8.27066C9.20088 6.99011 2.19056 6.72738 1.26781 9.24011C0.345068 11.7528 5.85932 16.0895 9.34637 17.37C12.8334 18.6506 16.4082 17.6517 17.331 15.139C18.2537 12.6262 16.175 9.5512 12.6879 8.27066Z" fill="#D9D9D9"/>
<path d="M12.6879 8.27066C9.20088 6.99011 2.19056 6.72738 1.26781 9.24011C0.345068 11.7528 5.85932 16.0895 9.34637 17.37C12.8334 18.6506 16.4082 17.6517 17.331 15.139C18.2537 12.6262 16.175 9.5512 12.6879 8.27066Z" fill="#D9D9D9"/>
<path d="M12.6879 8.27066C9.20088 6.99011 2.19056 6.72738 1.26781 9.24011C0.345068 11.7528 5.85932 16.0895 9.34637 17.37C12.8334 18.6506 16.4082 17.6517 17.331 15.139C18.2537 12.6262 16.175 9.5512 12.6879 8.27066Z" fill="#D9D9D9"/>
<path d="M12.6879 8.27066C9.20088 6.99011 2.19056 6.72738 1.26781 9.24011C0.345068 11.7528 5.85932 16.0895 9.34637 17.37C12.8334 18.6506 16.4082 17.6517 17.331 15.139C18.2537 12.6262 16.175 9.5512 12.6879 8.27066Z" fill="#D9D9D9"/>
<path d="M12.6879 8.27066C9.20088 6.99011 2.19056 6.72738 1.26781 9.24011C0.345068 11.7528 5.85932 16.0895 9.34637 17.37C12.8334 18.6506 16.4082 17.6517 17.331 15.139C18.2537 12.6262 16.175 9.5512 12.6879 8.27066Z" fill="#F8CC4D"/>
<path d="M18.2514 8.026C16.6912 4.6548 11.9199 -0.488017 9.49069 0.636268C7.06145 1.76055 7.89414 8.7262 9.45437 12.0974C11.0146 15.4686 14.2487 17.2901 16.678 16.1658C19.1072 15.0415 19.8117 11.3972 18.2514 8.026Z" fill="#D9D9D9"/>
<path d="M18.2514 8.026C16.6912 4.6548 11.9199 -0.488017 9.49069 0.636268C7.06145 1.76055 7.89414 8.7262 9.45437 12.0974C11.0146 15.4686 14.2487 17.2901 16.678 16.1658C19.1072 15.0415 19.8117 11.3972 18.2514 8.026Z" fill="#D9D9D9"/>
<path d="M18.2514 8.026C16.6912 4.6548 11.9199 -0.488017 9.49069 0.636268C7.06145 1.76055 7.89414 8.7262 9.45437 12.0974C11.0146 15.4686 14.2487 17.2901 16.678 16.1658C19.1072 15.0415 19.8117 11.3972 18.2514 8.026Z" fill="#D9D9D9"/>
<path d="M18.2514 8.026C16.6912 4.6548 11.9199 -0.488017 9.49069 0.636268C7.06145 1.76055 7.89414 8.7262 9.45437 12.0974C11.0146 15.4686 14.2487 17.2901 16.678 16.1658C19.1072 15.0415 19.8117 11.3972 18.2514 8.026Z" fill="#D9D9D9"/>
<path d="M18.2514 8.026C16.6912 4.6548 11.9199 -0.488017 9.49069 0.636268C7.06145 1.76055 7.89414 8.7262 9.45437 12.0974C11.0146 15.4686 14.2487 17.2901 16.678 16.1658C19.1072 15.0415 19.8117 11.3972 18.2514 8.026Z" fill="#D9D9D9"/>
<path d="M18.2514 8.026C16.6912 4.6548 11.9199 -0.488017 9.49069 0.636268C7.06145 1.76055 7.89414 8.7262 9.45437 12.0974C11.0146 15.4686 14.2487 17.2901 16.678 16.1658C19.1072 15.0415 19.8117 11.3972 18.2514 8.026Z" fill="#D9D9D9"/>
<path d="M18.2514 8.026C16.6912 4.6548 11.9199 -0.488017 9.49069 0.636268C7.06145 1.76055 7.89414 8.7262 9.45437 12.0974C11.0146 15.4686 14.2487 17.2901 16.678 16.1658C19.1072 15.0415 19.8117 11.3972 18.2514 8.026Z" fill="#D9D9D9"/>
<path d="M18.2514 8.026C16.6912 4.6548 11.9199 -0.488017 9.49069 0.636268C7.06145 1.76055 7.89414 8.7262 9.45437 12.0974C11.0146 15.4686 14.2487 17.2901 16.678 16.1658C19.1072 15.0415 19.8117 11.3972 18.2514 8.026Z" fill="#D9D9D9"/>
<path d="M18.2514 8.026C16.6912 4.6548 11.9199 -0.488017 9.49069 0.636268C7.06145 1.76055 7.89414 8.7262 9.45437 12.0974C11.0146 15.4686 14.2487 17.2901 16.678 16.1658C19.1072 15.0415 19.8117 11.3972 18.2514 8.026Z" fill="#D9D9D9"/>
<path d="M18.2514 8.026C16.6912 4.6548 11.9199 -0.488017 9.49069 0.636268C7.06145 1.76055 7.89414 8.7262 9.45437 12.0974C11.0146 15.4686 14.2487 17.2901 16.678 16.1658C19.1072 15.0415 19.8117 11.3972 18.2514 8.026Z" fill="#F8CC4D"/>
<path d="M17.3686 25.4418C20.327 27.6883 26.9523 29.9946 28.5712 27.8628C30.19 25.731 26.1893 19.9683 23.2309 17.7218C20.2724 15.4753 16.5618 15.3823 14.943 17.5141C13.3242 19.6459 14.4102 23.1953 17.3686 25.4418Z" fill="#D9D9D9"/>
<path d="M17.3686 25.4418C20.327 27.6883 26.9523 29.9946 28.5712 27.8628C30.19 25.731 26.1893 19.9683 23.2309 17.7218C20.2724 15.4753 16.5618 15.3823 14.943 17.5141C13.3242 19.6459 14.4102 23.1953 17.3686 25.4418Z" fill="#D9D9D9"/>
<path d="M17.3686 25.4418C20.327 27.6883 26.9523 29.9946 28.5712 27.8628C30.19 25.731 26.1893 19.9683 23.2309 17.7218C20.2724 15.4753 16.5618 15.3823 14.943 17.5141C13.3242 19.6459 14.4102 23.1953 17.3686 25.4418Z" fill="#D9D9D9"/>
<path d="M17.3686 25.4418C20.327 27.6883 26.9523 29.9946 28.5712 27.8628C30.19 25.731 26.1893 19.9683 23.2309 17.7218C20.2724 15.4753 16.5618 15.3823 14.943 17.5141C13.3242 19.6459 14.4102 23.1953 17.3686 25.4418Z" fill="#D9D9D9"/>
<path d="M17.3686 25.4418C20.327 27.6883 26.9523 29.9946 28.5712 27.8628C30.19 25.731 26.1893 19.9683 23.2309 17.7218C20.2724 15.4753 16.5618 15.3823 14.943 17.5141C13.3242 19.6459 14.4102 23.1953 17.3686 25.4418Z" fill="#D9D9D9"/>
<path d="M17.3686 25.4418C20.327 27.6883 26.9523 29.9946 28.5712 27.8628C30.19 25.731 26.1893 19.9683 23.2309 17.7218C20.2724 15.4753 16.5618 15.3823 14.943 17.5141C13.3242 19.6459 14.4102 23.1953 17.3686 25.4418Z" fill="#D9D9D9"/>
<path d="M17.3686 25.4418C20.327 27.6883 26.9523 29.9946 28.5712 27.8628C30.19 25.731 26.1893 19.9683 23.2309 17.7218C20.2724 15.4753 16.5618 15.3823 14.943 17.5141C13.3242 19.6459 14.4102 23.1953 17.3686 25.4418Z" fill="#D9D9D9"/>
<path d="M17.3686 25.4418C20.327 27.6883 26.9523 29.9946 28.5712 27.8628C30.19 25.731 26.1893 19.9683 23.2309 17.7218C20.2724 15.4753 16.5618 15.3823 14.943 17.5141C13.3242 19.6459 14.4102 23.1953 17.3686 25.4418Z" fill="#D9D9D9"/>
<path d="M17.3686 25.4418C20.327 27.6883 26.9523 29.9946 28.5712 27.8628C30.19 25.731 26.1893 19.9683 23.2309 17.7218C20.2724 15.4753 16.5618 15.3823 14.943 17.5141C13.3242 19.6459 14.4102 23.1953 17.3686 25.4418Z" fill="#D9D9D9"/>
<path d="M17.3686 25.4418C20.327 27.6883 26.9523 29.9946 28.5712 27.8628C30.19 25.731 26.1893 19.9683 23.2309 17.7218C20.2724 15.4753 16.5618 15.3823 14.943 17.5141C13.3242 19.6459 14.4102 23.1953 17.3686 25.4418Z" fill="#F8CC4D"/>
<path d="M11.6659 23.6425C12.1693 27.323 15.2233 33.6386 17.8754 33.2759C20.5275 32.9131 21.7734 26.0094 21.27 22.3289C20.7666 18.6485 18.2086 15.9589 15.5565 16.3217C12.9044 16.6844 11.1625 19.9621 11.6659 23.6425Z" fill="#D9D9D9"/>
<path d="M11.6659 23.6425C12.1693 27.323 15.2233 33.6386 17.8754 33.2759C20.5275 32.9131 21.7734 26.0094 21.27 22.3289C20.7666 18.6485 18.2086 15.9589 15.5565 16.3217C12.9044 16.6844 11.1625 19.9621 11.6659 23.6425Z" fill="#D9D9D9"/>
<path d="M11.6659 23.6425C12.1693 27.323 15.2233 33.6386 17.8754 33.2759C20.5275 32.9131 21.7734 26.0094 21.27 22.3289C20.7666 18.6485 18.2086 15.9589 15.5565 16.3217C12.9044 16.6844 11.1625 19.9621 11.6659 23.6425Z" fill="#D9D9D9"/>
<path d="M11.6659 23.6425C12.1693 27.323 15.2233 33.6386 17.8754 33.2759C20.5275 32.9131 21.7734 26.0094 21.27 22.3289C20.7666 18.6485 18.2086 15.9589 15.5565 16.3217C12.9044 16.6844 11.1625 19.9621 11.6659 23.6425Z" fill="#D9D9D9"/>
<path d="M11.6659 23.6425C12.1693 27.323 15.2233 33.6386 17.8754 33.2759C20.5275 32.9131 21.7734 26.0094 21.27 22.3289C20.7666 18.6485 18.2086 15.9589 15.5565 16.3217C12.9044 16.6844 11.1625 19.9621 11.6659 23.6425Z" fill="#D9D9D9"/>
<path d="M11.6659 23.6425C12.1693 27.323 15.2233 33.6386 17.8754 33.2759C20.5275 32.9131 21.7734 26.0094 21.27 22.3289C20.7666 18.6485 18.2086 15.9589 15.5565 16.3217C12.9044 16.6844 11.1625 19.9621 11.6659 23.6425Z" fill="#D9D9D9"/>
<path d="M11.6659 23.6425C12.1693 27.323 15.2233 33.6386 17.8754 33.2759C20.5275 32.9131 21.7734 26.0094 21.27 22.3289C20.7666 18.6485 18.2086 15.9589 15.5565 16.3217C12.9044 16.6844 11.1625 19.9621 11.6659 23.6425Z" fill="#D9D9D9"/>
<path d="M11.6659 23.6425C12.1693 27.323 15.2233 33.6386 17.8754 33.2759C20.5275 32.9131 21.7734 26.0094 21.27 22.3289C20.7666 18.6485 18.2086 15.9589 15.5565 16.3217C12.9044 16.6844 11.1625 19.9621 11.6659 23.6425Z" fill="#D9D9D9"/>
<path d="M11.6659 23.6425C12.1693 27.323 15.2233 33.6386 17.8754 33.2759C20.5275 32.9131 21.7734 26.0094 21.27 22.3289C20.7666 18.6485 18.2086 15.9589 15.5565 16.3217C12.9044 16.6844 11.1625 19.9621 11.6659 23.6425Z" fill="#D9D9D9"/>
<path d="M11.6659 23.6425C12.1693 27.323 15.2233 33.6386 17.8754 33.2759C20.5275 32.9131 21.7734 26.0094 21.27 22.3289C20.7666 18.6485 18.2086 15.9589 15.5565 16.3217C12.9044 16.6844 11.1625 19.9621 11.6659 23.6425Z" fill="#F8CC4D"/>
<path d="M8.84188 18.8428C6.59535 21.8012 4.28905 28.4265 6.42086 30.0453C8.55268 31.6642 14.3153 27.6635 16.5619 24.7051C18.8084 21.7466 18.9014 18.036 16.7696 16.4172C14.6378 14.7984 11.0884 15.8843 8.84188 18.8428Z" fill="#D9D9D9"/>
<path d="M8.84188 18.8428C6.59535 21.8012 4.28905 28.4265 6.42086 30.0453C8.55268 31.6642 14.3153 27.6635 16.5619 24.7051C18.8084 21.7466 18.9014 18.036 16.7696 16.4172C14.6378 14.7984 11.0884 15.8843 8.84188 18.8428Z" fill="#D9D9D9"/>
<path d="M8.84188 18.8428C6.59535 21.8012 4.28905 28.4265 6.42086 30.0453C8.55268 31.6642 14.3153 27.6635 16.5619 24.7051C18.8084 21.7466 18.9014 18.036 16.7696 16.4172C14.6378 14.7984 11.0884 15.8843 8.84188 18.8428Z" fill="#D9D9D9"/>
<path d="M8.84188 18.8428C6.59535 21.8012 4.28905 28.4265 6.42086 30.0453C8.55268 31.6642 14.3153 27.6635 16.5619 24.7051C18.8084 21.7466 18.9014 18.036 16.7696 16.4172C14.6378 14.7984 11.0884 15.8843 8.84188 18.8428Z" fill="#D9D9D9"/>
<path d="M8.84188 18.8428C6.59535 21.8012 4.28905 28.4265 6.42086 30.0453C8.55268 31.6642 14.3153 27.6635 16.5619 24.7051C18.8084 21.7466 18.9014 18.036 16.7696 16.4172C14.6378 14.7984 11.0884 15.8843 8.84188 18.8428Z" fill="#D9D9D9"/>
<path d="M8.84188 18.8428C6.59535 21.8012 4.28905 28.4265 6.42086 30.0453C8.55268 31.6642 14.3153 27.6635 16.5619 24.7051C18.8084 21.7466 18.9014 18.036 16.7696 16.4172C14.6378 14.7984 11.0884 15.8843 8.84188 18.8428Z" fill="#D9D9D9"/>
<path d="M8.84188 18.8428C6.59535 21.8012 4.28905 28.4265 6.42086 30.0453C8.55268 31.6642 14.3153 27.6635 16.5619 24.7051C18.8084 21.7466 18.9014 18.036 16.7696 16.4172C14.6378 14.7984 11.0884 15.8843 8.84188 18.8428Z" fill="#D9D9D9"/>
<path d="M8.84188 18.8428C6.59535 21.8012 4.28905 28.4265 6.42086 30.0453C8.55268 31.6642 14.3153 27.6635 16.5619 24.7051C18.8084 21.7466 18.9014 18.036 16.7696 16.4172C14.6378 14.7984 11.0884 15.8843 8.84188 18.8428Z" fill="#D9D9D9"/>
<path d="M8.84188 18.8428C6.59535 21.8012 4.28905 28.4265 6.42086 30.0453C8.55268 31.6642 14.3153 27.6635 16.5619 24.7051C18.8084 21.7466 18.9014 18.036 16.7696 16.4172C14.6378 14.7984 11.0884 15.8843 8.84188 18.8428Z" fill="#D9D9D9"/>
<path d="M8.84188 18.8428C6.59535 21.8012 4.28905 28.4265 6.42086 30.0453C8.55268 31.6642 14.3153 27.6635 16.5619 24.7051C18.8084 21.7466 18.9014 18.036 16.7696 16.4172C14.6378 14.7984 11.0884 15.8843 8.84188 18.8428Z" fill="#F8CC4D"/>
<path d="M23.6169 11.3475C24.3029 7.69669 23.4023 0.739502 20.7715 0.245158C18.1408 -0.249185 14.7761 5.90651 14.0901 9.55735C13.404 13.2082 14.9805 16.5685 17.6113 17.0629C20.2421 17.5572 22.9308 14.9984 23.6169 11.3475Z" fill="#D9D9D9"/>
<path d="M23.6169 11.3475C24.3029 7.69669 23.4023 0.739502 20.7715 0.245158C18.1408 -0.249185 14.7761 5.90651 14.0901 9.55735C13.404 13.2082 14.9805 16.5685 17.6113 17.0629C20.2421 17.5572 22.9308 14.9984 23.6169 11.3475Z" fill="#D9D9D9"/>
<path d="M23.6169 11.3475C24.3029 7.69669 23.4023 0.739502 20.7715 0.245158C18.1408 -0.249185 14.7761 5.90651 14.0901 9.55735C13.404 13.2082 14.9805 16.5685 17.6113 17.0629C20.2421 17.5572 22.9308 14.9984 23.6169 11.3475Z" fill="#D9D9D9"/>
<path d="M23.6169 11.3475C24.3029 7.69669 23.4023 0.739502 20.7715 0.245158C18.1408 -0.249185 14.7761 5.90651 14.0901 9.55735C13.404 13.2082 14.9805 16.5685 17.6113 17.0629C20.2421 17.5572 22.9308 14.9984 23.6169 11.3475Z" fill="#D9D9D9"/>
<path d="M23.6169 11.3475C24.3029 7.69669 23.4023 0.739502 20.7715 0.245158C18.1408 -0.249185 14.7761 5.90651 14.0901 9.55735C13.404 13.2082 14.9805 16.5685 17.6113 17.0629C20.2421 17.5572 22.9308 14.9984 23.6169 11.3475Z" fill="#D9D9D9"/>
<path d="M23.6169 11.3475C24.3029 7.69669 23.4023 0.739502 20.7715 0.245158C18.1408 -0.249185 14.7761 5.90651 14.0901 9.55735C13.404 13.2082 14.9805 16.5685 17.6113 17.0629C20.2421 17.5572 22.9308 14.9984 23.6169 11.3475Z" fill="#D9D9D9"/>
<path d="M23.6169 11.3475C24.3029 7.69669 23.4023 0.739502 20.7715 0.245158C18.1408 -0.249185 14.7761 5.90651 14.0901 9.55735C13.404 13.2082 14.9805 16.5685 17.6113 17.0629C20.2421 17.5572 22.9308 14.9984 23.6169 11.3475Z" fill="#D9D9D9"/>
<path d="M23.6169 11.3475C24.3029 7.69669 23.4023 0.739502 20.7715 0.245158C18.1408 -0.249185 14.7761 5.90651 14.0901 9.55735C13.404 13.2082 14.9805 16.5685 17.6113 17.0629C20.2421 17.5572 22.9308 14.9984 23.6169 11.3475Z" fill="#D9D9D9"/>
<path d="M23.6169 11.3475C24.3029 7.69669 23.4023 0.739502 20.7715 0.245158C18.1408 -0.249185 14.7761 5.90651 14.0901 9.55735C13.404 13.2082 14.9805 16.5685 17.6113 17.0629C20.2421 17.5572 22.9308 14.9984 23.6169 11.3475Z" fill="#D9D9D9"/>
<path d="M23.6169 11.3475C24.3029 7.69669 23.4023 0.739502 20.7715 0.245158C18.1408 -0.249185 14.7761 5.90651 14.0901 9.55735C13.404 13.2082 14.9805 16.5685 17.6113 17.0629C20.2421 17.5572 22.9308 14.9984 23.6169 11.3475Z" fill="#F8CC4D"/>
<path d="M24.5583 17.2528C27.625 15.1564 31.9076 9.60006 30.3969 7.39029C28.8863 5.18051 22.1543 7.15407 19.0877 9.25051C16.0211 11.3469 14.7597 14.8378 16.2704 17.0476C17.7811 19.2574 21.4917 19.3493 24.5583 17.2528Z" fill="#D9D9D9"/>
<path d="M24.5583 17.2528C27.625 15.1564 31.9076 9.60006 30.3969 7.39029C28.8863 5.18051 22.1543 7.15407 19.0877 9.25051C16.0211 11.3469 14.7597 14.8378 16.2704 17.0476C17.7811 19.2574 21.4917 19.3493 24.5583 17.2528Z" fill="#D9D9D9"/>
<path d="M24.5583 17.2528C27.625 15.1564 31.9076 9.60006 30.3969 7.39029C28.8863 5.18051 22.1543 7.15407 19.0877 9.25051C16.0211 11.3469 14.7597 14.8378 16.2704 17.0476C17.7811 19.2574 21.4917 19.3493 24.5583 17.2528Z" fill="#D9D9D9"/>
<path d="M24.5583 17.2528C27.625 15.1564 31.9076 9.60006 30.3969 7.39029C28.8863 5.18051 22.1543 7.15407 19.0877 9.25051C16.0211 11.3469 14.7597 14.8378 16.2704 17.0476C17.7811 19.2574 21.4917 19.3493 24.5583 17.2528Z" fill="#D9D9D9"/>
<path d="M24.5583 17.2528C27.625 15.1564 31.9076 9.60006 30.3969 7.39029C28.8863 5.18051 22.1543 7.15407 19.0877 9.25051C16.0211 11.3469 14.7597 14.8378 16.2704 17.0476C17.7811 19.2574 21.4917 19.3493 24.5583 17.2528Z" fill="#D9D9D9"/>
<path d="M24.5583 17.2528C27.625 15.1564 31.9076 9.60006 30.3969 7.39029C28.8863 5.18051 22.1543 7.15407 19.0877 9.25051C16.0211 11.3469 14.7597 14.8378 16.2704 17.0476C17.7811 19.2574 21.4917 19.3493 24.5583 17.2528Z" fill="#D9D9D9"/>
<path d="M24.5583 17.2528C27.625 15.1564 31.9076 9.60006 30.3969 7.39029C28.8863 5.18051 22.1543 7.15407 19.0877 9.25051C16.0211 11.3469 14.7597 14.8378 16.2704 17.0476C17.7811 19.2574 21.4917 19.3493 24.5583 17.2528Z" fill="#D9D9D9"/>
<path d="M24.5583 17.2528C27.625 15.1564 31.9076 9.60006 30.3969 7.39029C28.8863 5.18051 22.1543 7.15407 19.0877 9.25051C16.0211 11.3469 14.7597 14.8378 16.2704 17.0476C17.7811 19.2574 21.4917 19.3493 24.5583 17.2528Z" fill="#D9D9D9"/>
<path d="M24.5583 17.2528C27.625 15.1564 31.9076 9.60006 30.3969 7.39029C28.8863 5.18051 22.1543 7.15407 19.0877 9.25051C16.0211 11.3469 14.7597 14.8378 16.2704 17.0476C17.7811 19.2574 21.4917 19.3493 24.5583 17.2528Z" fill="#D9D9D9"/>
<path d="M24.5583 17.2528C27.625 15.1564 31.9076 9.60006 30.3969 7.39029C28.8863 5.18051 22.1543 7.15407 19.0877 9.25051C16.0211 11.3469 14.7597 14.8378 16.2704 17.0476C17.7811 19.2574 21.4917 19.3493 24.5583 17.2528Z" fill="#F8CC4D"/>
<path d="M21.5285 21.9254C25.1793 22.6114 32.1365 21.7108 32.6309 19.08C33.1252 16.4493 26.9695 13.0846 23.3187 12.3986C19.6678 11.7126 16.3075 13.2891 15.8132 15.9198C15.3188 18.5506 17.8777 21.2394 21.5285 21.9254Z" fill="#D9D9D9"/>
<path d="M21.5285 21.9254C25.1793 22.6114 32.1365 21.7108 32.6309 19.08C33.1252 16.4493 26.9695 13.0846 23.3187 12.3986C19.6678 11.7126 16.3075 13.2891 15.8132 15.9198C15.3188 18.5506 17.8777 21.2394 21.5285 21.9254Z" fill="#D9D9D9"/>
<path d="M21.5285 21.9254C25.1793 22.6114 32.1365 21.7108 32.6309 19.08C33.1252 16.4493 26.9695 13.0846 23.3187 12.3986C19.6678 11.7126 16.3075 13.2891 15.8132 15.9198C15.3188 18.5506 17.8777 21.2394 21.5285 21.9254Z" fill="#D9D9D9"/>
<path d="M21.5285 21.9254C25.1793 22.6114 32.1365 21.7108 32.6309 19.08C33.1252 16.4493 26.9695 13.0846 23.3187 12.3986C19.6678 11.7126 16.3075 13.2891 15.8132 15.9198C15.3188 18.5506 17.8777 21.2394 21.5285 21.9254Z" fill="#D9D9D9"/>
<path d="M21.5285 21.9254C25.1793 22.6114 32.1365 21.7108 32.6309 19.08C33.1252 16.4493 26.9695 13.0846 23.3187 12.3986C19.6678 11.7126 16.3075 13.2891 15.8132 15.9198C15.3188 18.5506 17.8777 21.2394 21.5285 21.9254Z" fill="#D9D9D9"/>
<path d="M21.5285 21.9254C25.1793 22.6114 32.1365 21.7108 32.6309 19.08C33.1252 16.4493 26.9695 13.0846 23.3187 12.3986C19.6678 11.7126 16.3075 13.2891 15.8132 15.9198C15.3188 18.5506 17.8777 21.2394 21.5285 21.9254Z" fill="#D9D9D9"/>
<path d="M21.5285 21.9254C25.1793 22.6114 32.1365 21.7108 32.6309 19.08C33.1252 16.4493 26.9695 13.0846 23.3187 12.3986C19.6678 11.7126 16.3075 13.2891 15.8132 15.9198C15.3188 18.5506 17.8777 21.2394 21.5285 21.9254Z" fill="#D9D9D9"/>
<path d="M21.5285 21.9254C25.1793 22.6114 32.1365 21.7108 32.6309 19.08C33.1252 16.4493 26.9695 13.0846 23.3187 12.3986C19.6678 11.7126 16.3075 13.2891 15.8132 15.9198C15.3188 18.5506 17.8777 21.2394 21.5285 21.9254Z" fill="#D9D9D9"/>
<path d="M21.5285 21.9254C25.1793 22.6114 32.1365 21.7108 32.6309 19.08C33.1252 16.4493 26.9695 13.0846 23.3187 12.3986C19.6678 11.7126 16.3075 13.2891 15.8132 15.9198C15.3188 18.5506 17.8777 21.2394 21.5285 21.9254Z" fill="#D9D9D9"/>
<path d="M21.5285 21.9254C25.1793 22.6114 32.1365 21.7108 32.6309 19.08C33.1252 16.4493 26.9695 13.0846 23.3187 12.3986C19.6678 11.7126 16.3075 13.2891 15.8132 15.9198C15.3188 18.5506 17.8777 21.2394 21.5285 21.9254Z" fill="#F8CC4D"/>
<ellipse cx="6" cy="5.5" rx="6" ry="5.5" transform="matrix(1 0 0 -1 10 22)" fill="white"/>
</svg>
