<svg width="253" height="228" viewBox="0 0 253 228" fill="none" xmlns="http://www.w3.org/2000/svg">
<path d="M206.757 119.556C181.71 123.973 149.681 121.699 148.291 113.813C146.9 105.926 176.674 95.4132 201.722 90.9967C226.769 86.5803 248.2 89.3932 249.591 97.2797C250.982 105.166 231.804 115.14 206.757 119.556Z" fill="#F8CC4D"/>
<path d="M146 46.0513C146 71.4847 138.2 102.632 130.191 102.632C122.183 102.632 117 71.4847 117 46.0513C117 20.6179 123.492 0 131.5 0C139.508 0 146 20.6179 146 46.0513Z" fill="#F8CC4D"/>
<path d="M194.585 73.9182C178.237 93.4013 152.24 112.248 146.105 107.1C139.971 101.953 156.021 74.7605 172.37 55.2773C188.718 35.7942 206.944 24.1729 213.078 29.3204C219.213 34.4679 210.933 54.435 194.585 73.9182Z" fill="#F8CC4D"/>
<path d="M193.525 164.881C171.499 152.164 148.425 129.835 152.429 122.9C156.433 115.965 185.999 127.049 208.025 139.766C230.051 152.483 244.661 168.414 240.657 175.349C236.653 182.284 215.551 177.598 193.525 164.881Z" fill="#F8CC4D"/>
<path d="M139.366 181.961C130.667 158.062 127.344 126.124 134.869 123.386C142.394 120.647 157.918 148.143 166.617 172.043C175.316 195.942 176.267 217.537 168.742 220.276C161.217 223.015 148.065 205.861 139.366 181.961Z" fill="#F8CC4D"/>
<path d="M204.264 142.48C178.973 138.021 149.355 124.878 150.745 116.991C152.136 109.105 184.009 109.461 209.3 113.921C234.591 118.38 253.966 128.389 252.576 136.275C251.185 144.162 229.555 146.94 204.264 142.48Z" fill="#F2F930"/>
<path d="M164.657 174.043C148.15 154.37 133.909 125.263 140.043 120.116C146.178 114.968 170.365 135.73 186.873 155.403C203.38 175.075 211.789 195.196 205.655 200.344C199.52 205.492 181.165 193.716 164.657 174.043Z" fill="#F2F930"/>
<path d="M140.848 170.49C140.848 196.171 133.048 227.622 125.04 227.622C117.031 227.622 111.848 196.171 111.848 170.49C111.848 144.809 118.34 123.99 126.348 123.99C134.356 123.99 140.848 144.809 140.848 170.49Z" fill="#F97430"/>
<path d="M199.978 98.3647C177.738 111.205 146.6 120.176 142.596 113.24C138.592 106.305 163.238 86.0906 185.478 73.25C207.719 60.4094 228.994 55.6221 232.998 62.5574C237.002 69.4926 222.219 85.5241 199.978 98.3647Z" fill="#F2F930"/>
<path d="M173.792 54.6143C165.008 78.7468 146.921 105.633 139.396 102.894C131.871 100.155 137.757 68.8282 146.54 44.6957C155.324 20.5632 168.545 3.22036 176.07 5.9593C183.595 8.69824 182.575 30.4818 173.792 54.6143Z" fill="#F2F930"/>
<path d="M48.4624 136.024C70.485 123.301 101.357 114.475 105.363 121.409C109.369 128.343 84.9918 148.412 62.9692 161.135C40.9467 173.857 19.8464 178.55 15.8405 171.616C11.8345 164.682 26.4399 148.747 48.4624 136.024Z" fill="#F8CC4D"/>
<path d="M82.7388 177.174C91.4311 153.272 109.407 126.666 116.933 129.403C124.459 132.14 118.685 163.183 109.993 187.085C101.3 210.987 88.1528 228.145 80.6269 225.408C73.101 222.671 74.0465 201.076 82.7388 177.174Z" fill="#F8CC4D"/>
<path d="M111.848 181.122C111.848 155.441 119.649 123.99 127.657 123.99C135.665 123.99 140.848 155.441 140.848 181.122C140.848 206.804 134.356 227.622 126.348 227.622C118.34 227.622 111.848 206.804 111.848 181.122Z" fill="#F2F930"/>
<path d="M53.3819 87.9845C78.4301 92.3941 107.754 105.477 106.365 113.364C104.977 121.251 73.4021 120.955 48.3538 116.545C23.3056 112.136 4.12557 102.167 5.51403 94.2804C6.9025 86.3936 28.3337 83.5748 53.3819 87.9845Z" fill="#F8CC4D"/>
<path d="M90.4237 54.3219C106.777 73.8007 120.831 102.671 114.698 107.821C108.564 112.97 84.567 92.4475 68.2134 72.9688C51.8598 53.4901 43.5746 33.5252 49.7078 28.376C55.841 23.2269 74.0701 34.8432 90.4237 54.3219Z" fill="#F8CC4D"/>
<path d="M43.7914 110.936C69.0812 106.47 101.41 108.682 102.802 116.568C104.195 124.454 74.1248 135.028 48.8349 139.494C23.545 143.961 1.91448 141.188 0.521754 133.302C-0.870977 125.416 18.5015 115.402 43.7914 110.936Z" fill="#F2F930"/>
<path d="M69.37 70.4181C91.614 83.2527 114.957 105.727 110.955 112.664C106.953 119.6 77.1208 108.371 54.8768 95.5368C32.6327 82.7022 17.8447 66.6747 21.8469 59.7383C25.8491 52.802 47.1259 57.5835 69.37 70.4181Z" fill="#F2F930"/>
<path d="M92.9572 65.6075C84.1672 41.4775 80.7316 9.2561 88.256 6.51512C95.7804 3.77414 111.416 31.5515 120.206 55.6816C128.996 79.8117 130.022 101.595 122.497 104.336C114.973 107.077 101.747 89.7376 92.9572 65.6075Z" fill="#F97430"/>
<path d="M116.567 45.6914C125.357 69.8215 128.792 102.043 121.268 104.784C113.743 107.525 98.1081 79.7475 89.3181 55.6174C80.5281 31.4873 79.5021 9.70396 87.0266 6.96298C94.551 4.222 107.776 21.5613 116.567 45.6914Z" fill="#F2F930"/>
<path d="M62.0854 153.615C78.5876 133.938 104.774 114.852 110.91 119.998C117.046 125.143 100.808 152.573 84.3057 172.25C67.8034 191.927 49.4515 203.708 43.3155 198.562C37.1796 193.416 45.5831 173.293 62.0854 153.615Z" fill="#F2F930"/>
<circle cx="128.5" cy="111.5" r="42.5" fill="#83452D"/>
<path d="M127.5 132C138.822 132 148 122.822 148 111.5C148 100.178 138.822 91 127.5 91C116.178 91 107 100.178 107 111.5C107 122.822 116.178 132 127.5 132Z" fill="#6B3A2B"/>
</svg>
